<?xml version="1.0" encoding="utf-8"?>
<!-- Generator: Adobe Illustrator 24.1.0, SVG Export Plug-In . SVG Version: 6.00 Build 0)  -->
<svg version="1.1" id="Layer_1" xmlns="http://www.w3.org/2000/svg" xmlns:xlink="http://www.w3.org/1999/xlink" x="0px" y="0px"
	 viewBox="0 0 1225.6 2075.2" style="enable-background:new 0 0 1225.6 2075.2;" xml:space="preserve">
<style type="text/css">
	.st0{fill:#E4E4E4;stroke:#E4E4E4;stroke-width:6.004;stroke-miterlimit:10;}
	.st1{fill:#16161D;stroke:#E4E4E4;stroke-width:6.004;stroke-miterlimit:10;}
	.st2{fill:none;stroke:#E4E4E4;stroke-width:15.317;stroke-miterlimit:10;}
	.st3{fill:#E4E4E4;}
	.st4{fill:none;stroke:#E4E4E4;stroke-width:15.356;stroke-miterlimit:10;}
	.st5{fill:none;}
	.st6{opacity:0.5;fill:#E4E4E4;enable-background:new    ;}
	.st7{fill:none;stroke:#E4E4E4;stroke-width:12;stroke-miterlimit:10;}
	.st8{fill:none;stroke:#E4E4E4;stroke-width:13.153;stroke-miterlimit:10;}
	.st9{fill:none;stroke:#E4E4E4;stroke-width:10.131;stroke-miterlimit:10;}
</style>
<path class="st0" d="M74.3,3h1076.9c36.6,0,66.2,29.7,66.2,66.2V2006c0,36.6-29.7,66.2-66.2,66.2H74.3c-36.6,0-66.2-29.7-66.2-66.2
	V69.2C8.1,32.7,37.8,3,74.3,3z"/>
<path class="st1" d="M73.5,3h1076.9c36.6,0,66.2,29.7,66.2,66.2V2006c0,36.6-29.7,66.2-66.2,66.2H73.5c-36.6,0-66.2-29.7-66.2-66.2
	V69.2C7.3,32.7,36.9,3,73.5,3z"/>
<ellipse class="st2" cx="612.8" cy="633.3" rx="41.5" ry="41.8"/>
<path class="st3" d="M607.3,266h10.9v322h-10.9V266z"/>
<circle class="st4" cx="612.8" cy="1441.8" r="41.8"/>
<path class="st3" d="M607.3,1491.1h11v322h-11V1491.1z"/>
<path class="st5" d="M1219.6,858.2v510.2l-606.8,614.1L6,1368.5V710.7l606.8-614l606.8,614.1V858.2z"/>
<g>
	<path class="st3" d="M317.6,737l-4.2,4.2L225.1,652l4.2-4.3L317.6,737z M1006.3,1427.7l-4.2,4.2l-89.3-89.7l4.3-4.2l84.6,85.1
		L1006.3,1427.7z M315,1338l4.2,4.2l-84.6,85.1l-3.7,3.6l-4.2-4.2l3.6-3.6L315,1338z M1000.2,652.5l-3.6,3.6l-84.2,85.1l-4.2-4.2
		l84.2-85.2l3.6-3.6L1000.2,652.5z"/>
	<path class="st6" d="M948.7,699.1l4.2-4.2l266.9,266.9l-4.2,4.2L948.7,699.1z M5.7,1121.3l4.2-4.2l265.5,265.5l-4.2,4.2L5.7,1121.3
		z M5.9,957l264.4-264.4l4.2,4.2L10.2,961.2L5.9,957z M949.6,1378.9l265.4-265.4l4.2,4.2l-265.4,265.4L949.6,1378.9z M79.7,78.5
		l5-3.3l169.1,253l-5,3.3L79.7,78.5z"/>
	<path class="st6" d="M79.7,78.4l4.2-4.2l213,213l-4.2,4.2L79.7,78.4z"/>
	<path class="st6" d="M79.8,78.4l5.5-2.3l122.2,295.1l-5.5,2.3L79.8,78.4z"/>
	<path class="st6" d="M79.8,78.4l5.9-1.2L155,425.4l-5.9,1.2L79.8,78.4z"/>
	<path class="st6" d="M80.5,79.3l3.3-5l253,169.1l-3.3,5L80.5,79.3z"/>
	<path class="st6" d="M81.5,79.9l2.3-5.5l295.1,122.2l-2.3,5.5L81.5,79.9z"/>
	<path class="st6" d="M82.7,80.3l1.2-5.9L432,143.7l-1.2,5.9L82.7,80.3z"/>
</g>
<path class="st7" d="M85.7,80.2l-0.1,410.7L496.3,80.1L85.7,80.2z"/>
<path class="st6" d="M888.6,243.2l253-169.1l3.3,5l-253,169.1L888.6,243.2z"/>
<path class="st6" d="M928.5,287.1l213-213l4.2,4.2l-213,213L928.5,287.1z"/>
<path class="st6" d="M846.5,196.5l295.1-122.2l2.3,5.5L848.8,202L846.5,196.5z"/>
<path class="st6" d="M793.4,143.5l348.2-69.3l1.2,5.9l-348.2,69.3L793.4,143.5z"/>
<path class="st6" d="M971.7,327.8l169.1-253l5,3.3l-169.1,253L971.7,327.8z"/>
<path class="st6" d="M1017.7,371l122.2-295.1l5.5,2.3l-122.2,295.1L1017.7,371z"/>
<path class="st6" d="M1070.4,425.2L1139.6,77l5.9,1.2l-69.3,348.2L1070.4,425.2z"/>
<path class="st7" d="M1139.8,80.1L729.1,80l410.8,410.7L1139.8,80.1z"/>
<path class="st8" d="M1214.2,1214.1l-601.5,601.5L10.1,1212.9"/>
<path class="st9" d="M15,1039.5l597.7-597.7l597.7,597.7l-597.7,597.7L15,1039.5z"/>
<path class="st3" d="M1206.3,1217.7l8-8l5.9,5.9l-8,8L1206.3,1217.7z M5,1210.3l5.9-5.9l8.4,8.4l-5.9,5.9L5,1210.3z"/>
<path class="st8" d="M10.5,865.9l602.3-602.3L1213,863.8"/>
<path class="st3" d="M1205.9,866.1l5.9-5.9l8.4,8.4l-5.9,5.9L1205.9,866.1z M5,868.7l8.1-8.1l5.9,5.9l-8.1,8.1L5,868.7z"/>
<path class="st8" d="M10.6,697.9L612.9,95.6l600.2,600.2"/>
<path class="st3" d="M1206.1,698l5.9-5.9l8.4,8.4l-5.9,5.9L1206.1,698z M5.1,700.7l8.1-8.1l5.9,5.9l-8.1,8.1L5.1,700.7z"/>
<path class="st8" d="M1214.9,1378l-602.3,602.3L12.4,1380.1"/>
<path class="st3" d="M5.1,1375.4l5.9-5.9l8.4,8.4l-5.9,5.9L5.1,1375.4z M1206.4,1377.2l8.1-8.1l5.9,5.9l-8.1,8.1L1206.4,1377.2z"/>
<path class="st6" d="M80.9,1996.7l253-169.1l3.3,5l-253,169.1L80.9,1996.7z"/>
<path class="st6" d="M79.8,1997.2l213-213l4.2,4.2l-213,213L79.8,1997.2z"/>
<path class="st6" d="M81.6,1996l295.1-122.2l2.3,5.5L83.9,2001.5L81.6,1996z"/>
<path class="st6" d="M82.7,1995.5l348.2-69.3l1.2,5.9l-348.2,69.3L82.7,1995.5z"/>
<path class="st6" d="M80.1,1997.5l169.1-253l5,3.3l-169.1,253L80.1,1997.5z"/>
<path class="st6" d="M80.1,1997.6l122.2-295.1l5.5,2.3L85.6,1999.9L80.1,1997.6z"/>
<path class="st6" d="M80,1997.5l69.3-348.2l5.9,1.2l-69.3,348.2L80,1997.5z"/>
<path class="st7" d="M85.7,1995.6l410.7,0.1L85.6,1584.9L85.7,1995.6z"/>
<path class="st6" d="M972.3,1747.3l5-3.3l169.1,253l-5,3.3L972.3,1747.3z"/>
<path class="st6" d="M928.9,1788.2l4.2-4.2l213,213l-4.2,4.2L928.9,1788.2z"/>
<path class="st6" d="M1018.3,1704.3l5.5-2.3l122.2,295.1l-5.5,2.3L1018.3,1704.3z"/>
<path class="st6" d="M1070.8,1650.1l5.9-1.2l69.3,348.2l-5.9,1.2L1070.8,1650.1z"/>
<path class="st6" d="M847.1,1878.8l2.3-5.5l295.1,122.2l-2.3,5.5L847.1,1878.8z"/>
<path class="st6" d="M794,1931.8l1.2-5.9l348.2,69.3l-1.2,5.9L794,1931.8z M1132.7,1987l-3.2,4.7l-238.6-160.6l3.2-4.7L1132.7,1987z
	"/>
<path class="st7" d="M1140.2,1995.3v-410.6l-410.7,410.7L1140.2,1995.3z"/>
</svg>
