<svg viewBox="0 0 1225.6 2075.2" xmlns="http://www.w3.org/2000/svg"><path d="M73.5 3h1076.9c36.6 0 66.2 29.7 66.2 66.2V2006c0 36.6-29.7 66.2-66.2 66.2H73.5c-36.6 0-66.2-29.7-66.2-66.2V69.2C7.3 32.7 36.9 3 73.5 3z" fill="#16161d" stroke="#e4e4e4" stroke-miterlimit="10" stroke-width="6.004"/><ellipse cx="612.8" cy="633.3" fill="none" rx="41.5" ry="41.8" stroke="#e4e4e4" stroke-miterlimit="10" stroke-width="15.317"/><path d="M607.3 266h10.9v322h-10.9z" fill="#e4e4e4"/><circle cx="612.8" cy="1441.8" fill="none" r="41.8" stroke="#e4e4e4" stroke-miterlimit="10" stroke-width="15.356"/><path d="M607.3 1491.1h11v322h-11z" fill="#e4e4e4"/><path d="M1219.6 858.2v510.2l-606.8 614.1L6 1368.5V710.7l606.8-614 606.8 614.1z" fill="none"/><g fill="#e4e4e4"><path d="M317.6 737l-4.2 4.2-88.3-89.2 4.2-4.3zm688.7 690.7l-4.2 4.2-89.3-89.7 4.3-4.2 84.6 85.1zM315 1338l4.2 4.2-84.6 85.1-3.7 3.6-4.2-4.2 3.6-3.6zm685.2-685.5l-3.6 3.6-84.2 85.1-4.2-4.2 84.2-85.2 3.6-3.6z"/><path d="M948.685 699.086l4.242-4.242 266.93 266.93-4.242 4.243zM5.697 1121.3l4.243-4.243 265.516 265.517-4.243 4.242zm.241-164.349l264.385-264.385 4.242 4.243L10.18 961.194zm943.707 421.923l265.445-265.446 4.243 4.243-265.445 265.445zM79.666 78.518l4.989-3.334L253.724 328.21l-4.989 3.333z" opacity=".5"/><path d="M79.69 78.408l4.243-4.243L296.91 287.144l-4.243 4.242z" opacity=".5"/><path d="M79.814 78.408l5.544-2.296 122.234 295.094-5.543 2.296z" opacity=".5"/><path d="M79.83 78.398l5.884-1.17 69.26 348.183-5.884 1.17z" opacity=".5"/><path d="M80.53 79.313l3.334-4.99 253.025 169.07-3.334 4.989z" opacity=".5"/><path d="M81.514 79.94l2.296-5.542 295.094 122.234-2.296 5.543z" opacity=".5"/><path d="M82.676 80.324l1.17-5.885 348.185 69.26-1.17 5.885z" opacity=".5"/></g><path d="M85.7 80.2l-.1 410.7L496.3 80.1z" fill="none" stroke="#e4e4e4" stroke-miterlimit="10" stroke-width="12"/><path d="M888.602 243.205l253.025-169.07 3.334 4.99-253.025 169.069z" fill="#e4e4e4" opacity=".5"/><path d="M928.479 287.052l212.979-212.979 4.242 4.243-212.978 212.978z" fill="#e4e4e4" opacity=".5"/><path d="M846.534 196.452l295.093-122.234 2.296 5.543L848.83 201.996z" fill="#e4e4e4" opacity=".5"/><path d="M793.439 143.49l348.184-69.26 1.17 5.884-348.184 69.261z" fill="#e4e4e4" opacity=".5"/><path d="M971.674 327.793l169.069-253.025 4.989 3.333-169.07 253.026z" fill="#e4e4e4" opacity=".5"/><path d="M1017.715 370.997L1139.95 75.903l5.544 2.296-122.235 295.094z" fill="#e4e4e4" opacity=".5"/><path d="M1070.381 425.21l69.261-348.185 5.885 1.17-69.26 348.185z" fill="#e4e4e4" opacity=".5"/><path d="M1139.8 80.1L729.1 80l410.8 410.7z" fill="none" stroke="#e4e4e4" stroke-miterlimit="10" stroke-width="12"/><path d="M1214.2 1214.1l-601.5 601.5-602.6-602.7" fill="none" stroke="#e4e4e4" stroke-miterlimit="10" stroke-width="13.153"/><path d="M15.03 1039.519l597.71-597.712 597.712 597.712L612.74 1637.23z" fill="none" stroke="#e4e4e4" stroke-miterlimit="10" stroke-width="10.131"/><path d="M1206.284 1217.681l7.99-7.99 5.869 5.87-7.99 7.99zM4.994 1210.29l5.94-5.939 8.414 8.415-5.94 5.94z" fill="#e4e4e4"/><path d="M10.5 865.9l602.3-602.3L1213 863.8" fill="none" stroke="#e4e4e4" stroke-miterlimit="10" stroke-width="13.153"/><path d="M1205.887 866.11l5.94-5.94 8.414 8.414-5.94 5.94zM5.004 868.74l8.061-8.06 5.94 5.94-8.061 8.06z" fill="#e4e4e4"/><path d="M10.6 697.9L612.9 95.6l600.2 600.2" fill="none" stroke="#e4e4e4" stroke-miterlimit="10" stroke-width="13.153"/><path d="M1206.124 697.998l5.94-5.94 8.414 8.415-5.94 5.94zM5.091 700.747l8.06-8.061 5.94 5.94-8.06 8.06z" fill="#e4e4e4"/><path d="M1214.9 1378l-602.3 602.3-600.2-600.2" fill="none" stroke="#e4e4e4" stroke-miterlimit="10" stroke-width="13.153"/><path d="M5.123 1375.414l5.94-5.94 8.414 8.415-5.94 5.94zm1201.254 1.827l8.06-8.06 5.94 5.939-8.06 8.06z" fill="#e4e4e4"/><path d="M80.851 1996.709l253.026-169.07 3.333 4.99-253.025 169.069z" fill="#e4e4e4" opacity=".5"/><path d="M79.8 1997.243l212.978-212.978 4.243 4.242-212.979 212.979z" fill="#e4e4e4" opacity=".5"/><path d="M81.646 1995.989l295.093-122.235 2.296 5.544-295.093 122.234z" fill="#e4e4e4" opacity=".5"/><path d="M82.726 1995.52l348.185-69.26 1.17 5.884-348.184 69.26z" fill="#e4e4e4" opacity=".5"/><path d="M80.11 1997.455l169.069-253.025 4.989 3.333-169.07 253.026z" fill="#e4e4e4" opacity=".5"/><path d="M80.092 1997.572l122.234-295.094 5.544 2.296-122.235 295.094z" fill="#e4e4e4" opacity=".5"/><path d="M80.037 1997.477l69.26-348.184 5.885 1.17-69.26 348.185z" fill="#e4e4e4" opacity=".5"/><path d="M85.7 1995.6l410.7.1-410.8-410.8z" fill="none" stroke="#e4e4e4" stroke-miterlimit="10" stroke-width="12"/><path d="M972.333 1747.333l4.989-3.334 169.07 253.026-4.99 3.333z" fill="#e4e4e4" opacity=".5"/><path d="M928.889 1788.19l4.242-4.242 212.979 212.979-4.243 4.242z" fill="#e4e4e4" opacity=".5"/><path d="M1018.35 1704.347l5.543-2.296 122.234 295.094-5.543 2.296z" fill="#e4e4e4" opacity=".5"/><path d="M1070.845 1650.123l5.885-1.17 69.26 348.184-5.885 1.17z" fill="#e4e4e4" opacity=".5"/><path d="M847.135 1878.804l2.296-5.544 295.093 122.235-2.296 5.543z" fill="#e4e4e4" opacity=".5"/><path d="M793.968 1931.77l1.17-5.884 348.184 69.26-1.17 5.885zM1132.7 1987l-3.2 4.7-238.6-160.6 3.2-4.7z" fill="#e4e4e4" opacity=".5"/><path d="M1140.2 1995.3v-410.6l-410.7 410.7z" fill="none" stroke="#e4e4e4" stroke-miterlimit="10" stroke-width="12"/></svg>