<svg xmlns="http://www.w3.org/2000/svg" viewBox="0 0 375.06 380.96"><path d="M374.42,208.79C367.92,280,323.7,337.23,262.83,364.88c-41.64,20.8-111.26,21.5-153.95,1.66-45.34-19-82.54-56.83-101.47-102.21a114.24,114.24,0,0,1-6.34-17.92A43,43,0,0,1,0,239.48H40.27c.77,2.48,1.25,3.86,2.12,6.33,2.36,6.75,5.28,12.29,8.29,18.37,27.4,46.78,72.77,77.18,133.14,78.57,86.24-1.7,149.88-66.51,152.6-151.87C333.67,105.57,270.05,40.73,183.82,39,135.53,40.19,94,60.11,66.21,95.73a1.44,1.44,0,0,0-.22.37l39.49,39.42L0,135.33V30.26L37.26,67.44l.33-.36,1.18-1.29C78.43,20.49,140.6-5.28,203.12.91,305.6,12.16,382.92,98.15,374.42,208.79Z" style="fill:rgba(255, 255, 255, 0.6);"/><circle cx="187.53" cy="190.48" r="96.29" style="fill:rgba(255, 255, 255, 0.6);"/></svg>